<svg width="23" height="23" viewBox="0 0 23 23" fill="none" xmlns="http://www.w3.org/2000/svg">
<path d="M21.3959 11.5H19.197M19.197 11.5C19.197 13.5415 18.3865 15.4988 16.943 16.9424C15.4994 18.3859 13.5416 19.1969 11.5001 19.1969M19.197 11.5C19.197 9.45854 18.3865 7.50016 16.943 6.05662C15.4994 4.61308 13.5416 3.80314 11.5001 3.80314M11.5001 1.60419V3.80314M11.5001 3.80314C9.45874 3.80314 7.50101 4.61302 6.05757 6.05647C4.61412 7.49991 3.80321 9.45764 3.80321 11.499C3.80321 13.5403 4.61412 15.498 6.05757 16.9415C7.50101 18.3849 9.45874 19.1969 11.5001 19.1969M1.60425 11.5H3.80321M11.5001 21.3958V19.1969" stroke="#058A55" stroke-width="1.5" stroke-miterlimit="10" stroke-linecap="round"/>
<path d="M11.5 15.8979C12.6664 15.8979 13.785 15.4346 14.6098 14.6098C15.4345 13.7851 15.8979 12.6664 15.8979 11.5C15.8979 10.3336 15.4345 9.215 14.6098 8.39023C13.785 7.56546 12.6664 7.10211 11.5 7.10211C10.3336 7.10211 9.21494 7.56546 8.39017 8.39023C7.5654 9.215 7.10205 10.3336 7.10205 11.5C7.10205 12.6664 7.5654 13.7851 8.39017 14.6098C9.21494 15.4346 10.3336 15.8979 11.5 15.8979Z" stroke="#058A55" stroke-width="1.5" stroke-miterlimit="10" stroke-linecap="round"/>
</svg>
